# xmcd
#
# Track frame offsets:
#	150
#	18289
#	31273
#	43655
#	64416
#	76537
#	90846
#	110431
#	128233
#	147803
#	164513
#	181684
#	196058
#
# Disc length: 2803 seconds
#
# Revision: 0
# Processed by: cddbd v1.5.2PL0 Copyright (c) Steve Scherf et al.
# Submitted via: audiograbber 1.83.01
#
DISCID=980af10d
DTITLE=Jim Quick and Coastline - Sneakin' Out Back
DYEAR=2007
DGENRE=Rock
TTITLE0=Little Bit Of Money
TTITLE1=Mississippi Mud
TTITLE2=Jumpin' The Jetty
TTITLE3=Callin'
TTITLE4=Do It
TTITLE5=Mama Lou's
TTITLE6=Angeline
TTITLE7=Somebody
TTITLE8=Turn Me Over
TTITLE9=Out Of State Cash
TTITLE10=Don't You Wanna Come Too?
TTITLE11=Sugar Cookies
TTITLE12=I'm Waiting At The Station
EXTD=
EXTT0=
EXTT1=
EXTT2=
EXTT3=
EXTT4=
EXTT5=
EXTT6=
EXTT7=
EXTT8=
EXTT9=
EXTT10=
EXTT11=
EXTT12=
PLAYORDER=
